PathFileType	4	(X/Y/Z)	OpenSim_Sub04_CSStiffKnee_Gyro.trc
DataRate	CameraRate	NumFrames	NumMarkers	Units	OrigDataRate	OrigDataStartFrame	OrigNumFrames
100	100	23	8	m	100	5560	7413
Frame#	Time	torso_imu_offset_imu	pelvis_imu_offset_imu	tibia_r_imu_offset_imu	femur_r_imu_offset_imu	tibia_l_imu_offset_imu	femur_l_imu_offset_imu	toes_r_imu_offset_imu	toes_l_imu_offset_imu
				X1	Y1	Z1	X2	Y2	Z2	X3	Y3	Z3	X4	Y4	Z4	X5	Y5	Z5	X6	Y6	Z6	X7	Y7	Z7	X8		Y8	Z8	

5560	55.59000000	-0.33670058	0.15623836	0.12771107	0.17354081	0.12118743	-0.11566550	-0.51758674	-0.06655693	-0.07680276	-0.65464244	-0.25474679	-1.19209446	-0.03531879	0.22572036	-2.52048708	-0.14394210	0.37341314	-0.97338921	0.44589582	-0.14549109	-0.40533439	-0.62711132	1.70329243	-1.02819656
5561	55.60000000	-0.35392213	0.15018576	0.14798422	0.12559451	0.15407200	-0.13193233	-0.56187677	-0.11650238	-0.09056380	-0.56261660	-0.18845833	-1.13264971	-0.25101324	0.19836732	-2.47703732	-0.07775368	0.39122593	-1.00428559	0.36077805	-0.16603623	-0.35186930	-0.74666103	1.47903708	-1.12012229
5562	55.61000000	-0.37276416	0.14591059	0.16953024	0.06992479	0.15495816	-0.14949316	-0.56508697	-0.12108866	-0.12893316	-0.53631779	-0.16206084	-1.11111784	-0.38565153	0.16434159	-2.48201278	0.00548317	0.34123086	-1.06478415	0.25239684	-0.16710657	-0.27924680	-0.81114080	1.35012600	-1.24880355
5563	55.62000000	-0.38069672	0.14216604	0.17790702	0.01938044	0.12649762	-0.16786479	-0.54647654	-0.07760392	-0.21159096	-0.54178281	-0.16899611	-1.08249374	-0.47296567	0.13883846	-2.48996040	0.04505630	0.28058900	-1.13061085	0.12749067	-0.17137588	-0.19810482	-0.73017684	1.31982560	-1.43220100
5564	55.63000000	-0.35158526	0.13561291	0.17875961	-0.03525945	0.09945642	-0.18992707	-0.49080275	-0.03046312	-0.30782397	-0.52997385	-0.16750458	-1.08249212	-0.55673116	0.15564795	-2.46953633	0.01276035	0.26193177	-1.16859987	0.02022416	-0.17962664	-0.14527549	-0.55590986	1.33252415	-1.60998303
5565	55.64000000	-0.32426863	0.13555676	0.18246170	-0.07718147	0.07457225	-0.19368550	-0.38949987	-0.00120376	-0.34274806	-0.48075532	-0.15564254	-1.08557339	-0.57545944	0.19196531	-2.42065256	-0.05423213	0.26944070	-1.16530550	-0.02222087	-0.16430060	-0.12695514	-0.44609144	1.34222758	-1.68175885
5566	55.65000000	-0.30703718	0.13306845	0.18644840	-0.12570958	0.03346159	-0.20914027	-0.24446301	0.00930520	-0.32057790	-0.39144375	-0.16419956	-0.98919308	-0.52329520	0.23975951	-2.37934439	-0.11188575	0.27773610	-1.16417275	-0.01228858	-0.13194232	-0.15961753	-0.50508138	1.36347368	-1.64996175
5567	55.66000000	-0.27735315	0.13103154	0.18474460	-0.17312171	-0.00978086	-0.21457146	-0.09774762	-0.02112598	-0.31194696	-0.29407008	-0.20285140	-0.97741156	-0.50215339	0.29315697	-2.33067410	-0.20280503	0.27819560	-1.12961974	0.00260853	-0.10182506	-0.21679984	-0.67251370	1.40334683	-1.55035060
5568	55.67000000	-0.23404611	0.12564583	0.17210135	-0.20872355	-0.04819570	-0.19932548	-0.01721210	-0.06975597	-0.32124650	-0.22657603	-0.23691160	-0.95945601	-0.54166382	0.33998678	-2.26360570	-0.35153087	0.27204734	-1.06752889	0.03951788	-0.05025820	-0.27612232	-0.80383013	1.41611789	-1.42252476
5569	55.68000000	-0.20474011	0.11742445	0.15344234	-0.24872212	-0.06416707	-0.18006439	-0.00337782	-0.06465316	-0.32404516	-0.18306805	-0.25738423	-0.86572970	-0.64493930	0.37589065	-2.18723165	-0.51421619	0.26110875	-1.01814443	0.08565529	0.03208503	-0.35305605	-0.81875127	1.38621991	-1.29504082
5570	55.69000000	-0.20594813	0.11207652	0.13539276	-0.27304600	-0.05484296	-0.14874366	0.02721159	-0.03294962	-0.31903242	-0.16139538	-0.26632066	-0.87279792	-0.77975040	0.39087187	-2.10630275	-0.69883648	0.25550824	-0.97129240	0.13242055	0.09723474	-0.43602901	-0.75761776	1.33793047	-1.15909452
5571	55.70000000	-0.21131080	0.10504853	0.12324826	-0.27664769	-0.02733577	-0.12335254	0.05621807	-0.01754920	-0.32193054	-0.15192142	-0.26203801	-0.92215116	-0.84088195	0.40529631	-2.02206794	-0.94795750	0.24627094	-0.93838304	0.15311161	0.18980233	-0.50742078	-0.71272060	1.27367387	-1.00666847
5572	55.71000000	-0.21730129	0.10168332	0.11561618	-0.27570891	0.00099568	-0.09612257	0.02983774	0.00490900	-0.38049934	-0.14783028	-0.29101995	-0.92245590	-0.86962896	0.43106680	-1.94257106	-1.18051040	0.23576900	-0.90628520	0.14204187	0.24317887	-0.54067681	-0.69959997	1.15108407	-0.82217025
5573	55.72000000	-0.23005721	0.09483789	0.10162026	-0.25600184	0.01303596	-0.08592440	-0.00791714	-0.00538508	-0.45758314	-0.19597093	-0.30450431	-0.90366609	-0.90591670	0.42536690	-1.89207659	-1.38463643	0.21062351	-0.86122329	0.13372979	0.20571471	-0.52099156	-0.74936001	0.97766304	-0.62552840
5574	55.73000000	-0.24741153	0.09685600	0.07835369	-0.23301935	0.00703259	-0.10842697	-0.07609390	-0.01921891	-0.52623621	-0.30993571	-0.27238886	-0.88304784	-0.82903035	0.38354412	-1.85135943	-1.51306515	0.16274542	-0.80458616	0.10496090	0.14850917	-0.46946591	-0.79626094	0.87151928	-0.44777439
5575	55.74000000	-0.24388280	0.10381519	0.05840259	-0.22027502	-0.01512384	-0.14865513	-0.20640936	0.00547429	-0.58802907	-0.42507553	-0.23036330	-0.79980876	-0.68332421	0.32424011	-1.78748308	-1.50456909	0.12400295	-0.72370263	0.09795725	0.09465986	-0.43931267	-0.63764700	0.95519083	-0.36187027
5576	55.75000000	-0.23075922	0.10553977	0.03262623	-0.23338081	-0.06104117	-0.20440730	-0.29700400	0.02011149	-0.64761728	-0.49380726	-0.16206364	-0.70156871	-0.43655910	0.26710777	-1.69398208	-1.36782536	0.10098016	-0.62439967	0.07808746	0.03887107	-0.41856793	-0.37881053	1.15630875	-0.33682093
5577	55.76000000	-0.21425171	0.10112863	0.01473587	-0.25792617	-0.13192130	-0.25282456	-0.31645061	0.03429070	-0.71308398	-0.51599133	-0.06582501	-0.62854666	-0.16505234	0.19329332	-1.55589934	-1.11786078	0.09760627	-0.53334435	0.03347738	-0.00520060	-0.38278970	0.18893194	1.14533375	-0.36566344
5578	55.77000000	-0.16372473	0.08461104	-0.01233974	-0.27289699	-0.19808590	-0.28310418	-0.27176513	0.05370666	-0.77995659	-0.50518818	0.02818306	-0.58649317	0.08347961	0.08660839	-1.40750944	-0.82361745	0.12329871	-0.47913160	-0.00687224	-0.04783630	-0.35083959	0.55970009	0.99283049	-0.36186361
5579	55.78000000	-0.11359845	0.08185407	-0.04684642	-0.28958215	-0.23878037	-0.31033619	-0.17902520	0.06010087	-0.83914105	-0.47529117	0.09534726	-0.56011296	0.30739941	0.01725716	-1.22914920	-0.53284016	0.16844758	-0.47847405	-0.02359412	-0.10978154	-0.36219939	0.49295240	0.82782010	-0.30297717
5580	55.79000000	-0.07567469	0.08580020	-0.07211372	-0.29881736	-0.26334692	-0.31695382	-0.08874328	0.04924702	-0.90077183	-0.42752733	0.13123773	-0.50651759	0.28327400	0.01900836	-0.99378333	-0.25847354	0.22091149	-0.48149391	-0.02200382	-0.15751994	-0.39804477	0.53613323	0.53150100	-0.35897839
5581	55.80000000	-0.04206984	0.08818015	-0.08999352	-0.30024283	-0.28432978	-0.29249795	-0.02028583	0.03817788	-0.98386229	-0.36375122	0.16028388	-0.43948770	0.08170993	0.00925942	-0.72932076	-0.04689065	0.26076102	-0.49676843	-0.01136149	-0.20486268	-0.43527147	0.45755144	0.12392621	-0.48743099
5582	55.81000000	0.01634082	0.06560936	-0.10040091	-0.29035715	-0.31176879	-0.24811392	-0.01790764	0.02985565	-1.08432212	-0.29826530	0.18713837	-0.47324949	-0.12801217	-0.03128357	-0.43806698	0.08676624	0.27818032	-0.54554490	0.01899490	-0.25103198	-0.46300715	0.28761820	-0.23307239	-0.66124086
